<svg width="89" height="19" viewBox="0 0 89 19" xmlns="http://www.w3.org/2000/svg">
<path d="M6.968 18.336C2.792 18.336 0.2 15.936 0.2 11.616V7.584C0.2 3.264 2.792 0.863999 6.968 0.863999C11.096 0.863999 13.448 3.264 13.448 7.2V7.344H10.328V7.104C10.328 5.136 9.224 3.696 6.968 3.696C4.712 3.696 3.368 5.184 3.368 7.536V11.664C3.368 14.016 4.712 15.504 6.968 15.504C9.224 15.504 10.328 14.064 10.328 12.096V11.664H13.448V12C13.448 15.936 11.096 18.336 6.968 18.336ZM21.7893 18.336C18.2373 18.336 15.5493 16.08 15.5493 12.24V11.856C15.5493 8.016 18.2373 5.76 21.7893 5.76C25.3413 5.76 28.0293 8.016 28.0293 11.856V12.24C28.0293 16.08 25.3413 18.336 21.7893 18.336ZM21.7893 15.648C23.6373 15.648 25.0053 14.4 25.0053 12.168V11.928C25.0053 9.696 23.6613 8.448 21.7893 8.448C19.9173 8.448 18.5733 9.696 18.5733 11.928V12.168C18.5733 14.4 19.9413 15.648 21.7893 15.648ZM35.7646 18.336C32.6446 18.336 30.5566 16.944 30.1486 14.448L32.9326 13.728C33.2446 15.408 34.3726 15.936 35.7646 15.936C37.1566 15.936 37.8286 15.384 37.8286 14.64C37.8286 13.896 37.2286 13.56 35.8126 13.296L35.1406 13.176C32.6446 12.72 30.5806 11.784 30.5806 9.432C30.5806 7.08 32.4526 5.76 35.2846 5.76C37.9486 5.76 39.7726 7.056 40.3246 8.976L37.5166 9.84C37.2526 8.616 36.4366 8.16 35.2846 8.16C34.1326 8.16 33.5086 8.592 33.5086 9.288C33.5086 10.056 34.1806 10.368 35.2846 10.56L35.9566 10.68C38.6446 11.16 40.7566 11.928 40.7566 14.424C40.7566 16.92 38.7886 18.336 35.7646 18.336ZM43.4066 18V6.096H46.3826V7.392H46.8146C47.2226 6.6 48.1586 5.904 49.7426 5.904C51.4466 5.904 52.4066 6.624 52.9586 7.68H53.3906C53.9186 6.672 54.8306 5.904 56.6546 5.904C58.8626 5.904 60.6386 7.296 60.6386 10.176V18H57.6146V10.392C57.6146 9.096 56.8946 8.424 55.6946 8.424C54.3026 8.424 53.5346 9.336 53.5346 10.968V18H50.5106V10.392C50.5106 9.096 49.7906 8.424 48.5906 8.424C47.1986 8.424 46.4306 9.336 46.4306 10.968V18H43.4066ZM69.5549 18.336C66.0029 18.336 63.3149 16.08 63.3149 12.24V11.856C63.3149 8.016 66.0029 5.76 69.5549 5.76C73.1069 5.76 75.7949 8.016 75.7949 11.856V12.24C75.7949 16.08 73.1069 18.336 69.5549 18.336ZM69.5549 15.648C71.4029 15.648 72.7709 14.4 72.7709 12.168V11.928C72.7709 9.696 71.4269 8.448 69.5549 8.448C67.6829 8.448 66.3389 9.696 66.3389 11.928V12.168C66.3389 14.4 67.7069 15.648 69.5549 15.648ZM83.5303 18.336C80.4103 18.336 78.3223 16.944 77.9143 14.448L80.6983 13.728C81.0103 15.408 82.1383 15.936 83.5303 15.936C84.9223 15.936 85.5943 15.384 85.5943 14.64C85.5943 13.896 84.9943 13.56 83.5783 13.296L82.9062 13.176C80.4103 12.72 78.3463 11.784 78.3463 9.432C78.3463 7.08 80.2183 5.76 83.0503 5.76C85.7143 5.76 87.5383 7.056 88.0903 8.976L85.2823 9.84C85.0183 8.616 84.2023 8.16 83.0503 8.16C81.8983 8.16 81.2743 8.592 81.2743 9.288C81.2743 10.056 81.9463 10.368 83.0503 10.56L83.7223 10.68C86.4103 11.16 88.5223 11.928 88.5223 14.424C88.5223 16.92 86.5543 18.336 83.5303 18.336Z" fill="currentColor"/>
</svg>
